<svg width="24" height="17" viewBox="0 0 24 17" fill="none" xmlns="http://www.w3.org/2000/svg">
<path d="M21.9718 6.36605H2.02817C0.908282 6.36605 0 7.22133 0 8.27586C0 9.3304 0.908282 10.1857 2.02817 10.1857H21.9718C23.0917 10.1857 24 9.3304 24 8.27586C24 7.22133 23.0917 6.36605 21.9718 6.36605ZM2.02817 3.81963H21.9718C23.0917 3.81963 24 2.96435 24 1.90981C24 0.855278 23.0917 0 21.9718 0H2.02817C0.908282 0 0 0.855278 0 1.90981C0 2.96435 0.908282 3.81963 2.02817 3.81963ZM21.9718 12.7321H2.02817C0.908282 12.7321 0 13.5874 0 14.6419C0 15.6964 0.908282 16.5517 2.02817 16.5517H21.9718C23.0917 16.5517 24 15.6964 24 14.6419C24 13.5874 23.0917 12.7321 21.9718 12.7321Z" fill="#0B315E"/>
</svg>
